<svg xmlns="http://www.w3.org/2000/svg" xmlns:xlink="http://www.w3.org/1999/xlink" id="Layer_1" x="0" y="0" version="1.1" viewBox="0 0 24 24" style="enable-background:new 0 0 24 24" xml:space="preserve"><style type="text/css">.st0{fill:#fff}</style><path d="M12,15.6c-0.1,0-0.3,0-0.4-0.1c-0.1,0-0.2-0.1-0.3-0.2l-3.6-3.6c-0.2-0.2-0.3-0.4-0.3-0.7	c0-0.3,0.1-0.5,0.3-0.7C7.9,10.1,8.1,10,8.4,10c0.3,0,0.5,0.1,0.7,0.3l1.9,1.9V5c0-0.3,0.1-0.5,0.3-0.7C11.5,4.1,11.7,4,12,4	s0.5,0.1,0.7,0.3C12.9,4.5,13,4.7,13,5v7.2l1.9-1.9c0.2-0.2,0.4-0.3,0.7-0.3c0.3,0,0.5,0.1,0.7,0.3c0.2,0.2,0.3,0.4,0.3,0.7	c0,0.3-0.1,0.5-0.3,0.7l-3.6,3.6c-0.1,0.1-0.2,0.2-0.3,0.2C12.3,15.6,12.1,15.6,12,15.6z M6,20c-0.5,0-1-0.2-1.4-0.6S4,18.5,4,18v-2	c0-0.3,0.1-0.5,0.3-0.7C4.5,15.1,4.7,15,5,15s0.5,0.1,0.7,0.3C5.9,15.5,6,15.7,6,16v2h12v-2c0-0.3,0.1-0.5,0.3-0.7	c0.2-0.2,0.4-0.3,0.7-0.3s0.5,0.1,0.7,0.3c0.2,0.2,0.3,0.4,0.3,0.7v2c0,0.5-0.2,1-0.6,1.4S18.6,20,18,20H6z" class="st0"/></svg>