<svg xmlns="http://www.w3.org/2000/svg" xmlns:xlink="http://www.w3.org/1999/xlink" id="Layer_1" x="0" y="0" version="1.1" viewBox="0 0 24 24" style="enable-background:new 0 0 24 24" xml:space="preserve"><style type="text/css">.st0{fill:#0d6efd}.st1{fill:#fff}</style><g><path d="M4,21.5c-0.4,0-0.8-0.1-1.1-0.4c-0.3-0.3-0.4-0.7-0.4-1.1v-2.4c0-0.3,0.1-0.7,0.2-1C2.8,16.3,3,16,3.2,15.8 L15.8,3.2c0.3-0.2,0.5-0.4,0.8-0.5c0.3-0.1,0.6-0.2,1-0.2c0.3,0,0.7,0.1,1,0.2c0.3,0.1,0.6,0.3,0.8,0.6l1.4,1.4 c0.2,0.2,0.4,0.5,0.6,0.8c0.1,0.3,0.2,0.6,0.2,0.9c0,0.3-0.1,0.6-0.2,0.9c-0.1,0.3-0.3,0.6-0.6,0.8L8.2,20.8 c-0.2,0.2-0.5,0.4-0.8,0.5c-0.3,0.1-0.6,0.2-1,0.2H4z M17.6,7.1l0.7-0.7l-0.7-0.7l-0.7,0.7L17.6,7.1z" class="st0"/><path d="M17.6,3c0.3,0,0.5,0,0.8,0.1s0.5,0.2,0.6,0.5L20.4,5c0.2,0.2,0.3,0.4,0.4,0.6C21,5.9,21,6.1,21,6.4 c0,0.3,0,0.5-0.1,0.8c-0.1,0.2-0.2,0.5-0.4,0.7L7.8,20.4c-0.2,0.2-0.4,0.3-0.6,0.4S6.7,21,6.4,21H4c-0.3,0-0.5-0.1-0.7-0.3 C3.1,20.5,3,20.3,3,20v-2.4c0-0.3,0-0.5,0.2-0.8c0.1-0.2,0.2-0.5,0.4-0.6L16.2,3.6c0.2-0.2,0.4-0.3,0.7-0.4C17.1,3,17.4,3,17.6,3 M17.6,7.8L19,6.4L17.6,5l-1.4,1.4L17.6,7.8 M17.6,2c-0.4,0-0.8,0.1-1.1,0.2c-0.3,0.1-0.7,0.4-1,0.6L2.9,15.5 c-0.3,0.3-0.5,0.6-0.6,1C2.1,16.8,2,17.2,2,17.6V20c0,0.5,0.2,1,0.6,1.4C3,21.8,3.5,22,4,22h2.4c0.4,0,0.8-0.1,1.1-0.2 c0.4-0.2,0.7-0.4,1-0.6L21.1,8.5c0.3-0.3,0.5-0.6,0.7-1C21.9,7.2,22,6.8,22,6.4c0-0.4-0.1-0.7-0.2-1.1c-0.1-0.4-0.4-0.7-0.7-1 l-1.4-1.4c-0.3-0.3-0.6-0.5-1-0.7C18.4,2.1,18,2,17.6,2L17.6,2z" class="st1"/></g></svg>