<?xml version="1.0" encoding="utf-8"?>
<!-- Generator: Adobe Illustrator 28.2.0, SVG Export Plug-In . SVG Version: 6.00 Build 0)  -->
<svg version="1.1" id="Layer_1" xmlns="http://www.w3.org/2000/svg" xmlns:xlink="http://www.w3.org/1999/xlink" x="0px" y="0px"
	 viewBox="0 0 24 24" style="enable-background:new 0 0 24 24;" xml:space="preserve">
<style type="text/css">
	.st0{fill:#FFFFFF;}
</style>
<path class="st0" d="M4,21c-0.3,0-0.5-0.1-0.7-0.3C3.1,20.5,3,20.3,3,20v-2.4c0-0.3,0-0.5,0.2-0.8c0.1-0.2,0.2-0.5,0.4-0.6L16.2,3.6
	c0.2-0.2,0.4-0.3,0.7-0.4C17.1,3,17.4,3,17.6,3c0.3,0,0.5,0,0.8,0.1c0.2,0.1,0.5,0.2,0.7,0.5L20.4,5c0.2,0.2,0.3,0.4,0.4,0.7
	S21,6.1,21,6.4c0,0.3,0,0.5-0.1,0.8c-0.1,0.2-0.2,0.5-0.4,0.7L7.8,20.4c-0.2,0.2-0.4,0.3-0.6,0.4S6.7,21,6.4,21H4z M17.6,7.8L19,6.4
	L17.6,5l-1.4,1.4L17.6,7.8z"/>
</svg>
