<svg xmlns="http://www.w3.org/2000/svg" xmlns:xlink="http://www.w3.org/1999/xlink" id="Layer_1" x="0" y="0" version="1.1" viewBox="0 0 24 24" style="enable-background:new 0 0 24 24" xml:space="preserve"><style type="text/css">.st0{fill:#fff}</style><path d="M5,21c-0.5,0-1-0.2-1.4-0.6S3,19.5,3,19V5c0-0.5,0.2-1,0.6-1.4S4.5,3,5,3h14c0.6,0,1,0.2,1.4,0.6S21,4.4,21,5	v14c0,0.5-0.2,1-0.6,1.4S19.6,21,19,21H5z M7,17h10c0.2,0,0.4-0.1,0.5-0.3c0.1-0.2,0.1-0.4-0.1-0.5l-2.7-3.7	c-0.1-0.1-0.2-0.2-0.4-0.2s-0.3,0.1-0.4,0.2L11.2,16l-1.8-2.5c-0.1-0.1-0.2-0.2-0.4-0.2c-0.2,0-0.3,0.1-0.4,0.2l-2,2.7	c-0.1,0.2-0.1,0.3,0,0.5C6.7,16.9,6.8,17,7,17z" class="st0"/></svg>