<svg xmlns="http://www.w3.org/2000/svg" xmlns:xlink="http://www.w3.org/1999/xlink" id="Layer_1" x="0" y="0" version="1.1" viewBox="0 0 24 24" style="enable-background:new 0 0 24 24" xml:space="preserve"><style type="text/css">.st0{fill:#0d6efd}.st1{fill:#fff}</style><g><path d="M5,21.5c-0.7,0-1.3-0.2-1.8-0.7c-0.5-0.5-0.7-1.1-0.7-1.8V5c0-0.7,0.2-1.3,0.7-1.8S4.3,2.5,5,2.5h14 c0.7,0,1.3,0.2,1.8,0.7c0.5,0.5,0.7,1.1,0.7,1.8v14c0,0.7-0.2,1.3-0.7,1.8s-1.1,0.7-1.8,0.7H5z M17,16.5l-2.8-3.7l-2.7,3.7H17z M9,13.8l-2,2.7h4L9,13.8L9,13.8z" class="st0"/><path d="M19,3c0.5,0,1,0.2,1.4,0.6S21,4.5,21,5v14c0,0.5-0.2,1-0.6,1.4S19.5,21,19,21H5c-0.6,0-1-0.2-1.4-0.6 S3,19.5,3,19V5c0-0.5,0.2-1,0.6-1.4S4.4,3,5,3H19 M11.2,16l-1.9-2.5c-0.1-0.1-0.2-0.2-0.4-0.2s-0.3,0.1-0.4,0.2l-2,2.7 c-0.1,0.2-0.2,0.3,0,0.5C6.7,16.9,6.8,17,7,17h10c0.2,0,0.4-0.1,0.5-0.3c0.1-0.2,0.1-0.4-0.1-0.5l-2.8-3.7 c-0.1-0.1-0.2-0.2-0.4-0.2s-0.3,0.1-0.4,0.2L11.2,16 M19,2H5C4.2,2,3.5,2.3,2.9,2.9S2,4.2,2,5v14c0,0.8,0.3,1.5,0.9,2.1 S4.2,22,5,22h14c0.8,0,1.5-0.3,2.1-0.9S22,19.8,22,19V5c0-0.8-0.3-1.5-0.9-2.1S19.8,2,19,2L19,2z M12.5,16l1.8-2.3L16,16H12.5 L12.5,16z M8,16l1-1.3l1,1.3H8L8,16z" class="st1"/></g></svg>