<?xml version="1.0" encoding="utf-8"?>
<!-- Generator: Adobe Illustrator 28.2.0, SVG Export Plug-In . SVG Version: 6.00 Build 0)  -->
<svg version="1.1" id="Layer_1" xmlns="http://www.w3.org/2000/svg" xmlns:xlink="http://www.w3.org/1999/xlink" x="0px" y="0px"
	 viewBox="0 0 24 24" style="enable-background:new 0 0 24 24;" xml:space="preserve">
<style type="text/css">
	.st0{fill:#DC3545;}
	.st1{fill:#FFFFFF;}
</style>
<g>
	<path class="st0" d="M10.1,21.2c-0.1,0-0.3,0-0.4-0.1c-1.8-0.5-3.3-1.5-4.5-3c-1.1-1.5-1.7-3.2-1.7-5.2c0-1,0.2-2,0.5-2.9
		c0.3-0.9,0.8-1.7,1.4-2.5c0.3-0.3,0.6-0.5,1-0.5c0,0,0,0,0,0c0.4,0,0.8,0.2,1.1,0.5C7.9,7.8,8,8.2,8,8.6C8,9,7.9,9.3,7.6,9.7
		c-0.4,0.5-0.6,1-0.8,1.6c-0.2,0.6-0.3,1.2-0.3,1.8c0,1.2,0.4,2.3,1.1,3.3c0.7,1,1.7,1.6,2.8,2c0.3,0.1,0.6,0.3,0.8,0.5
		c0.2,0.3,0.3,0.6,0.3,0.9c0,0.5-0.2,0.9-0.5,1.2C10.7,21.1,10.4,21.2,10.1,21.2z M13.9,21.2c-0.3,0-0.6-0.1-0.9-0.3
		c-0.3-0.3-0.5-0.7-0.5-1.2c0-0.3,0.1-0.6,0.3-0.9c0.2-0.3,0.5-0.4,0.8-0.5c1.2-0.4,2.1-1,2.8-2c0.7-1,1.1-2.1,1.1-3.3
		c0-1.5-0.5-2.8-1.6-3.9c-0.8-0.8-1.8-1.3-2.9-1.5c0.1,0.2,0.1,0.3,0.1,0.5c0,0.4-0.1,0.8-0.4,1.1c-0.3,0.3-0.6,0.4-1.1,0.4
		s-0.8-0.1-1.1-0.4L8.5,7.1C8.3,6.9,8.2,6.7,8.1,6.5C8.1,6.4,8,6.2,8,6s0-0.4,0.1-0.5c0.1-0.2,0.2-0.4,0.3-0.5l2.1-2.1
		c0.3-0.3,0.6-0.4,1.1-0.4s0.8,0.1,1.1,0.4c0.3,0.3,0.4,0.6,0.4,1.1c0,0.2,0,0.5-0.1,0.7c2,0.2,3.7,1,5.1,2.4c1.6,1.6,2.5,3.7,2.5,6
		c0,1.9-0.6,3.7-1.7,5.2c-1.1,1.5-2.6,2.5-4.5,3C14.2,21.2,14,21.2,13.9,21.2z"/>
	<path class="st1" d="M11.6,2.9c0.3,0,0.5,0.1,0.7,0.3c0.2,0.2,0.3,0.4,0.3,0.7c0,0.3-0.1,0.5-0.3,0.7L11.9,5H12
		c2.2,0,4.1,0.8,5.7,2.3C19.2,8.9,20,10.8,20,13c0,1.8-0.5,3.4-1.6,4.9c-1.1,1.4-2.5,2.4-4.2,2.9c-0.1,0-0.2,0-0.3,0
		c-0.2,0-0.4-0.1-0.6-0.2c-0.2-0.2-0.4-0.5-0.4-0.8c0-0.2,0.1-0.4,0.2-0.6c0.1-0.2,0.3-0.3,0.5-0.4c1.2-0.4,2.3-1.1,3.1-2.2
		S18,14.3,18,13c0-1.7-0.6-3.1-1.8-4.2C15.1,7.6,13.7,7,12,7h-0.1l0.4,0.4c0.2,0.2,0.3,0.4,0.3,0.7c0,0.3-0.1,0.5-0.3,0.7
		c-0.2,0.2-0.4,0.3-0.7,0.3S11.1,9,10.9,8.8L8.8,6.7C8.7,6.6,8.7,6.5,8.6,6.4c0-0.1-0.1-0.2-0.1-0.4c0-0.1,0-0.3,0.1-0.4
		c0-0.1,0.1-0.2,0.2-0.3l2.1-2.1C11.1,3,11.3,2.9,11.6,2.9 M6.5,7.6c0.3,0,0.5,0.1,0.7,0.3c0.2,0.2,0.3,0.4,0.3,0.7
		c0,0.3-0.1,0.5-0.3,0.8C6.8,9.9,6.5,10.4,6.3,11C6.1,11.7,6,12.3,6,13c0,1.3,0.4,2.6,1.2,3.6c0.8,1.1,1.8,1.8,3.1,2.2
		c0.2,0.1,0.4,0.2,0.5,0.4c0.1,0.2,0.2,0.4,0.2,0.6c0,0.3-0.1,0.6-0.4,0.8c-0.2,0.1-0.3,0.2-0.5,0.2c-0.1,0-0.2,0-0.3,0
		c-1.7-0.5-3.1-1.4-4.2-2.8C4.5,16.5,4,14.8,4,13c0-0.9,0.2-1.9,0.5-2.7c0.3-0.9,0.8-1.6,1.3-2.4C6,7.7,6.2,7.6,6.5,7.6
		C6.5,7.6,6.5,7.6,6.5,7.6 M11.6,1.9c-0.5,0-1,0.2-1.4,0.6L8.1,4.6C7.9,4.8,7.8,5,7.7,5.3C7.6,5.5,7.5,5.8,7.5,6
		c0,0.2,0,0.5,0.1,0.7C7.8,7,7.9,7.2,8.1,7.4l2.1,2.1c0.4,0.4,0.9,0.6,1.4,0.6s1-0.2,1.4-0.6c0.3-0.3,0.5-0.8,0.6-1.3
		c0.7,0.2,1.4,0.6,1.9,1.2c1,1,1.5,2.1,1.5,3.5c0,1.1-0.3,2.1-1,3c-0.7,0.9-1.5,1.5-2.6,1.8c-0.4,0.1-0.8,0.4-1,0.7
		c-0.3,0.4-0.4,0.8-0.4,1.2c0,0,0,0,0,0c0-0.4-0.2-0.8-0.4-1.2c-0.3-0.3-0.6-0.6-1-0.7C9.5,17.5,8.7,16.9,8,16c-0.7-0.9-1-1.9-1-3
		c0-0.6,0.1-1.1,0.3-1.6c0.2-0.5,0.4-1,0.8-1.4c0.3-0.4,0.5-0.9,0.5-1.4c0-0.5-0.2-1-0.6-1.4C7.5,6.8,7.1,6.6,6.5,6.6h0l0,0
		c-0.5,0-1,0.2-1.4,0.6l0,0l0,0C4.4,8.1,3.9,9,3.5,9.9c-0.4,1-0.5,2-0.5,3.1c0,2.1,0.6,3.9,1.8,5.5C6,20,7.6,21.1,9.6,21.7
		c0.2,0.1,0.4,0.1,0.5,0.1c0.4,0,0.8-0.1,1.2-0.4c0.5-0.4,0.7-0.9,0.7-1.6c0,0,0,0,0,0c0,0.6,0.2,1.1,0.7,1.5
		c0.3,0.3,0.8,0.5,1.2,0.5c0.2,0,0.3,0,0.5-0.1c1.9-0.5,3.5-1.6,4.7-3.2C20.4,16.9,21,15,21,13c0-2.5-0.9-4.6-2.6-6.4
		c-1.4-1.4-3-2.2-4.8-2.5c0-0.1,0-0.1,0-0.2c0-0.5-0.2-1-0.6-1.4C12.7,2.1,12.2,1.9,11.6,1.9L11.6,1.9z"/>
</g>
</svg>
