<svg xmlns="http://www.w3.org/2000/svg" xmlns:xlink="http://www.w3.org/1999/xlink" id="Layer_1" x="0" y="0" version="1.1" viewBox="0 0 24 24" style="enable-background:new 0 0 24 24" xml:space="preserve"><style type="text/css">.st0{opacity:.75;fill:#212529}</style><path d="M12,21c-0.3,0-0.5-0.1-0.7-0.3C11.1,20.5,11,20.3,11,20v-4c0-0.3,0.1-0.5,0.3-0.7c0.2-0.2,0.4-0.3,0.7-0.3	s0.5,0.1,0.7,0.3c0.2,0.2,0.3,0.4,0.3,0.7v1h7c0.3,0,0.5,0.1,0.7,0.3c0.2,0.2,0.3,0.4,0.3,0.7s-0.1,0.5-0.3,0.7	C20.5,18.9,20.3,19,20,19h-7v1c0,0.3-0.1,0.5-0.3,0.7C12.5,20.9,12.3,21,12,21z M4,19c-0.3,0-0.5-0.1-0.7-0.3C3.1,18.5,3,18.3,3,18	s0.1-0.5,0.3-0.7C3.5,17.1,3.7,17,4,17h4c0.3,0,0.5,0.1,0.7,0.3C8.9,17.5,9,17.7,9,18s-0.1,0.5-0.3,0.7C8.5,18.9,8.3,19,8,19H4z M8,15c-0.3,0-0.5-0.1-0.7-0.3C7.1,14.5,7,14.3,7,14v-1H4c-0.3,0-0.5-0.1-0.7-0.3S3,12.3,3,12s0.1-0.5,0.3-0.7S3.7,11,4,11h3v-1	c0-0.3,0.1-0.5,0.3-0.7C7.5,9.1,7.7,9,8,9c0.3,0,0.5,0.1,0.7,0.3C8.9,9.5,9,9.7,9,10v4c0,0.3-0.1,0.5-0.3,0.7C8.5,14.9,8.3,15,8,15z M12,13c-0.3,0-0.5-0.1-0.7-0.3S11,12.3,11,12s0.1-0.5,0.3-0.7S11.7,11,12,11h8c0.3,0,0.5,0.1,0.7,0.3c0.2,0.2,0.3,0.4,0.3,0.7	s-0.1,0.5-0.3,0.7C20.5,12.9,20.3,13,20,13H12z M16,9c-0.3,0-0.5-0.1-0.7-0.3C15.1,8.5,15,8.3,15,8V4c0-0.3,0.1-0.5,0.3-0.7	C15.5,3.1,15.7,3,16,3s0.5,0.1,0.7,0.3C16.9,3.5,17,3.7,17,4v1h3c0.3,0,0.5,0.1,0.7,0.3C20.9,5.5,21,5.7,21,6s-0.1,0.5-0.3,0.7	C20.5,6.9,20.3,7,20,7h-3v1c0,0.3-0.1,0.5-0.3,0.7C16.5,8.9,16.3,9,16,9z M4,7C3.7,7,3.5,6.9,3.3,6.7S3,6.3,3,6s0.1-0.5,0.3-0.7	C3.5,5.1,3.7,5,4,5h8c0.3,0,0.5,0.1,0.7,0.3C12.9,5.5,13,5.7,13,6s-0.1,0.5-0.3,0.7S12.3,7,12,7H4z" class="st0"/></svg>