<svg xmlns="http://www.w3.org/2000/svg" xmlns:xlink="http://www.w3.org/1999/xlink" id="Layer_1" x="0" y="0" version="1.1" viewBox="0 0 2322.9 129" style="enable-background:new 0 0 2322.9 129" xml:space="preserve"><style type="text/css">.st0{fill:#1976d2}</style><g><g><path d="M119.6,0L75.4,85.6v42.2H44.2V85.6L0,0h35.3l24.8,53.5L84.7,0H119.6z" class="st0"/><path d="M226.8,0v24.9h-33.9v102.9h-31.1V24.9h-33.9V0H226.8z" class="st0"/><path d="M426.5,0v24.9h-33.9v102.9h-31.1V24.9h-33.9V0H426.5z" class="st0"/><path d="M571.1,0v127.8H540V75.2h-48.4v52.6h-31.1V0h31.1v50.1H540V0H571.1z" class="st0"/><path d="M642.3,0v76.5c0,7.6,1.9,13.5,5.6,17.7c3.8,4.1,9.3,6.2,16.6,6.2s12.9-2.1,16.7-6.2c3.9-4.1,5.8-10,5.8-17.7 V0h31.1v76.3c0,11.4-2.4,21.1-7.3,28.9c-4.9,7.9-11.4,13.8-19.6,17.8s-17.3,6-27.4,6s-19.1-2-27-5.9c-8-3.9-14.2-9.9-18.8-17.8 c-4.6-7.9-6.9-17.6-6.9-29V0H642.3z" class="st0"/><path d="M903,0v127.8h-31.1V51.2l-28.6,76.6h-25.1L789.4,51v76.8h-31.1V0h36.8L831,88.5L866.5,0C866.5,0,903,0,903,0z" class="st0"/><path d="M1038.8,73.2c4.5,5.8,6.7,12.4,6.7,19.8c0,10.7-3.7,19.1-11.2,25.4s-17.9,9.4-31.2,9.4h-59.5V0h57.5 c13,0,23.1,3,30.5,8.9c7.3,5.9,11,14,11,24.2c0,7.5-2,13.8-5.9,18.8s-9.2,8.4-15.7,10.4C1028.3,63.8,1034.3,67.5,1038.8,73.2z M974.7,51.7h20.4c5.1,0,9-1.1,11.7-3.4c2.7-2.2,4.1-5.6,4.1-9.9s-1.4-7.7-4.1-10s-6.6-3.5-11.7-3.5h-20.4V51.7z M1009.7,99.1 c2.9-2.4,4.3-5.8,4.3-10.3s-1.5-8-4.5-10.6c-3-2.5-7.1-3.8-12.3-3.8h-22.6v28.2h22.9C1002.9,102.7,1006.9,101.5,1009.7,99.1z" class="st0"/><path d="M1196.1,127.8H1165L1112.9,49v78.8h-31.1V0h31.1l52.1,79.2V0h31.1V127.8z" class="st0"/><path d="M1316.4,105.2h-47.7l-7.6,22.6h-32.6L1274.7,0h36l46.2,127.8h-33L1316.4,105.2z M1308.4,81.2l-15.8-46.8 l-15.7,46.8H1308.4z" class="st0"/><path d="M1420.4,0v127.8h-31.1V0H1420.4z" class="st0"/><path d="M1492.3,103.7h40.8v24h-71.9V0h31.1L1492.3,103.7L1492.3,103.7z" class="st0"/><path d="M1767.7,0v127.8h-31.1V51.2l-28.6,76.6h-25.1L1654.1,51v76.8H1623V0h36.8l35.9,88.5L1731.2,0 C1731.2,0,1767.7,0,1767.7,0z" class="st0"/><path d="M1887.9,105.2h-47.7l-7.6,22.6H1800L1846.2,0h36l46.2,127.8h-33L1887.9,105.2z M1879.9,81.2l-15.8-46.8 l-15.7,46.8H1879.9z" class="st0"/><path d="M2034.8,127.8l-43-56.4v56.4h-31.1V0h31.1v56.1L2034.4,0h36.6l-49.5,62.6l51.3,65.2H2034.8z" class="st0"/><path d="M2137,24.9v25.9h41.7v24H2137v28h47.2v24.9h-78.3V0h78.3v24.9H2137z" class="st0"/><path d="M2287.7,127.8l-26.6-48.2h-7.5v48.2h-31.1V0h52.3c10.1,0,18.7,1.8,25.8,5.3s12.4,8.3,15.9,14.5 c3.5,6.1,5.3,13,5.3,20.5c0,8.5-2.4,16.1-7.2,22.8s-11.9,11.4-21.2,14.2l29.5,50.6L2287.7,127.8L2287.7,127.8z M2253.7,57.5h19.3 c5.7,0,10-1.4,12.8-4.2c2.9-2.8,4.3-6.7,4.3-11.8c0-4.9-1.4-8.7-4.3-11.5c-2.9-2.8-7.1-4.2-12.8-4.2h-19.3V57.5z" class="st0"/></g></g></svg>